<svg xmlns="http://www.w3.org/2000/svg" viewBox="0 0 1440 800">
  <defs>
    <linearGradient id="gradient1" x1="0%" y1="0%" x2="100%" y2="100%">
      <stop offset="0%" style="stop-color:#7c3aed;stop-opacity:0.8" />
      <stop offset="100%" style="stop-color:#a855f7;stop-opacity:0.4" />
    </linearGradient>
    <linearGradient id="gradient2" x1="100%" y1="0%" x2="0%" y2="100%">
      <stop offset="0%" style="stop-color:#7c3aed;stop-opacity:0.6" />
      <stop offset="100%" style="stop-color:#ec4899;stop-opacity:0.3" />
    </linearGradient>
  </defs>
  <path fill="url(#gradient1)" d="M0,128L48,149.3C96,171,192,213,288,224C384,235,480,213,576,186.7C672,160,768,128,864,128C960,128,1056,160,1152,165.3C1248,171,1344,149,1392,138.7L1440,128L1440,320L1392,320C1344,320,1248,320,1152,320C1056,320,960,320,864,320C768,320,672,320,576,320C480,320,384,320,288,320C192,320,96,320,48,320L0,320Z" opacity="0.4">
    <animate attributeName="d" dur="15s" repeatCount="indefinite" values="M0,128L48,149.3C96,171,192,213,288,224C384,235,480,213,576,186.7C672,160,768,128,864,128C960,128,1056,160,1152,165.3C1248,171,1344,149,1392,138.7L1440,128L1440,320L1392,320C1344,320,1248,320,1152,320C1056,320,960,320,864,320C768,320,672,320,576,320C480,320,384,320,288,320C192,320,96,320,48,320L0,320Z;
                               M0,160L48,165.3C96,171,192,181,288,170.7C384,160,480,128,576,112C672,96,768,96,864,117.3C960,139,1056,181,1152,170.7C1248,160,1344,96,1392,64L1440,32L1440,320L1392,320C1344,320,1248,320,1152,320C1056,320,960,320,864,320C768,320,672,320,576,320C480,320,384,320,288,320C192,320,96,320,48,320L0,320Z;
                               M0,96L48,122.7C96,149,192,203,288,208C384,213,480,171,576,149.3C672,128,768,128,864,144C960,160,1056,192,1152,197.3C1248,203,1344,181,1392,170.7L1440,160L1440,320L1392,320C1344,320,1248,320,1152,320C1056,320,960,320,864,320C768,320,672,320,576,320C480,320,384,320,288,320C192,320,96,320,48,320L0,320Z;
                               M0,128L48,149.3C96,171,192,213,288,224C384,235,480,213,576,186.7C672,160,768,128,864,128C960,128,1056,160,1152,165.3C1248,171,1344,149,1392,138.7L1440,128L1440,320L1392,320C1344,320,1248,320,1152,320C1056,320,960,320,864,320C768,320,672,320,576,320C480,320,384,320,288,320C192,320,96,320,48,320L0,320Z" />
  </path>
  <path fill="url(#gradient2)" d="M0,256L48,234.7C96,213,192,171,288,165.3C384,160,480,192,576,192C672,192,768,160,864,165.3C960,171,1056,213,1152,208C1248,203,1344,149,1392,122.7L1440,96L1440,320L1392,320C1344,320,1248,320,1152,320C1056,320,960,320,864,320C768,320,672,320,576,320C480,320,384,320,288,320C192,320,96,320,48,320L0,320Z" opacity="0.5">
    <animate attributeName="d" dur="20s" repeatCount="indefinite" values="M0,256L48,234.7C96,213,192,171,288,165.3C384,160,480,192,576,192C672,192,768,160,864,165.3C960,171,1056,213,1152,208C1248,203,1344,149,1392,122.7L1440,96L1440,320L1392,320C1344,320,1248,320,1152,320C1056,320,960,320,864,320C768,320,672,320,576,320C480,320,384,320,288,320C192,320,96,320,48,320L0,320Z;
                               M0,192L48,197.3C96,203,192,213,288,202.7C384,192,480,160,576,170.7C672,181,768,235,864,245.3C960,256,1056,224,1152,218.7C1248,213,1344,235,1392,245.3L1440,256L1440,320L1392,320C1344,320,1248,320,1152,320C1056,320,960,320,864,320C768,320,672,320,576,320C480,320,384,320,288,320C192,320,96,320,48,320L0,320Z;
                               M0,224L48,213.3C96,203,192,181,288,176C384,171,480,181,576,197.3C672,213,768,235,864,229.3C960,224,1056,192,1152,165.3C1248,139,1344,117,1392,106.7L1440,96L1440,320L1392,320C1344,320,1248,320,1152,320C1056,320,960,320,864,320C768,320,672,320,576,320C480,320,384,320,288,320C192,320,96,320,48,320L0,320Z;
                               M0,256L48,234.7C96,213,192,171,288,165.3C384,160,480,192,576,192C672,192,768,160,864,165.3C960,171,1056,213,1152,208C1248,203,1344,149,1392,122.7L1440,96L1440,320L1392,320C1344,320,1248,320,1152,320C1056,320,960,320,864,320C768,320,672,320,576,320C480,320,384,320,288,320C192,320,96,320,48,320L0,320Z" />
  </path>
</svg>